<svg width="191" height="48" viewBox="0 0 191 48" fill="none" xmlns="http://www.w3.org/2000/svg">
<path fill-rule="evenodd" clip-rule="evenodd" d="M51.0678 31.5748C48.2579 28.0201 42.3936 20.9107 40.4389 18.4591C40.4389 17.8462 40.561 17.1108 40.561 16.4979C40.561 13.1883 41.2941 10.3691 39.3393 8.04013C40.0723 7.79497 38.6063 7.05951 38.7285 6.32405C39.095 4.97571 38.4841 3.25964 37.1402 2.15645C35.3076 0.808113 33.2307 1.17584 31.5203 2.40161C31.276 2.64676 31.0316 2.89191 30.7873 3.13707C29.199 2.52418 27.733 2.27903 25.6561 2.27903C23.7013 2.27903 21.38 2.40161 19.4253 3.13707C17.5927 0.808113 15.1493 0.0726539 13.1945 1.9113C11.8506 3.25964 11.6063 4.97571 11.7285 6.20148C11.8506 7.42724 10.2624 9.14331 11.3619 9.51104C9.7737 11.84 10.8732 14.6593 10.8732 16.4979C10.8732 18.4591 10.9954 18.214 11.1176 19.072C8.9185 22.1364 6.10854 26.1814 3.90945 29.8587V31.2071C7.81895 31.4522 14.0497 32.1877 17.3484 33.6586C20.5248 35.007 24.0678 37.0908 26.3891 39.2971C28.7104 37.0908 32.6199 34.7618 35.7963 33.4135C41.0497 31.0845 45.2036 31.0845 50.457 30.7168L51.0678 31.5748Z" fill="#F19137"/>
<path fill-rule="evenodd" clip-rule="evenodd" d="M7.08597 36.1101C6.84162 36.6004 6.84162 36.8456 7.20814 36.6004C7.33031 36.4778 7.57466 36.3553 7.69683 36.2327C7.45248 36.2327 7.20814 36.2327 7.08597 36.1101Z" fill="#FBBD5E"/>
<path fill-rule="evenodd" clip-rule="evenodd" d="M22.6019 10.1239C23.0906 10.1239 23.4571 10.4916 23.4571 10.9819C23.4571 11.4722 23.0906 11.84 22.6019 11.84C22.1132 11.84 21.7467 11.4722 21.7467 10.9819C21.7467 10.4916 22.1132 10.1239 22.6019 10.1239Z" fill="#341A11"/>
<path fill-rule="evenodd" clip-rule="evenodd" d="M28.5881 10.1239C29.0768 10.1239 29.4433 10.4916 29.4433 10.9819C29.4433 11.4722 29.0768 11.84 28.5881 11.84C28.0995 11.84 27.7329 11.4722 27.7329 10.9819C27.7329 10.4916 28.0995 10.1239 28.5881 10.1239Z" fill="#341A11"/>
<path fill-rule="evenodd" clip-rule="evenodd" d="M26.0226 13.0657C30.9094 13.0657 34.8189 16.6204 34.8189 21.1557C34.8189 25.5685 30.9094 33.4134 26.0226 33.4134C21.1357 33.4134 17.2262 25.6911 17.2262 21.1557C17.2262 16.743 21.1357 13.0657 26.0226 13.0657Z" fill="white"/>
<path fill-rule="evenodd" clip-rule="evenodd" d="M25.9005 14.9043C28.5882 14.9043 30.4208 16.0075 30.4208 18.5816C30.4208 21.1557 28.0996 24.0975 25.7783 24.2201C23.457 24.3427 20.8914 21.1557 20.8914 18.5816C20.8914 16.0075 23.3348 14.9043 25.9005 14.9043Z" fill="#231F20"/>
<path fill-rule="evenodd" clip-rule="evenodd" d="M25.2896 15.7623C25.6561 15.7623 25.9004 15.7623 26.267 15.8849C24.3122 15.8849 22.6018 17.4784 22.3575 20.1751C21.9909 19.5622 21.8688 18.9493 21.8688 18.3364C21.8688 16.4978 23.457 15.7623 25.2896 15.7623Z" fill="white"/>
<path d="M36.0836 8.89809C35.9614 8.89809 35.9185 8.89809 35.7963 8.89809C35.7963 9.02067 35.7963 9 35.9185 9.51098C35.9185 10.2464 35.9185 10.8593 35.7963 11.5948C35.6741 11.9625 35.5519 12.3302 35.4298 12.698C34.9411 13.8012 34.0859 14.5366 32.8642 14.9043C32.2533 15.0269 31.5203 15.1495 30.7872 15.1495C30.0542 15.1495 29.3212 15.0269 28.8325 14.9043C28.5881 14.7818 28.2216 14.6592 27.9773 14.5366C27.1221 14.0463 26.5112 13.3108 26.0225 12.4528C25.9004 12.2077 25.7782 11.9625 25.656 11.7174C25.656 11.8399 25.5338 11.9625 25.5338 12.0851C25.1673 12.9431 24.6786 13.556 24.19 14.0463C23.9456 14.2915 23.7013 14.414 23.4569 14.5366C23.2126 14.6592 22.9682 14.7818 22.6017 14.7818C21.9909 15.0269 21.38 15.0269 20.647 15.0269C19.9139 15.0269 19.1809 14.9043 18.57 14.7818C17.9592 14.6592 17.4705 14.2915 17.104 13.9237C16.6153 13.556 16.3709 13.0657 16.1266 12.5754C15.8823 12.0851 15.7601 11.3496 15.7601 10.4916C15.7601 9.75613 15.7601 9.02067 15.7601 8.53036C15.6379 8.53036 15.6379 8.53036 15.5157 8.65294L14.9049 6.44656C16.4931 6.07883 18.3257 5.83368 20.1583 5.83368C22.2352 5.83368 23.2255 5.88451 25.058 6.49739C25.4246 6.61997 25.9004 6.68912 26.0225 6.68912C26.4985 6.68912 27.1603 6.70242 27.5638 6.5C28.6634 6.13227 30.5429 5.7111 32.2533 5.83368C34.0859 5.95626 35.7963 6.32399 36.8958 6.81429L36.0836 8.89809ZM32.1311 8.16263C30.6651 8.04006 28.9547 7.91748 27.6108 8.53036C26.9999 8.77552 26.7556 9.02067 26.8777 9.75613C26.8777 10.4916 27.1221 11.1045 27.3664 11.5948C27.7329 12.2077 28.2216 12.698 28.7103 13.0657C28.8325 13.1883 29.0768 13.1883 29.199 13.3108C29.5655 13.4334 30.0542 13.556 30.6651 13.556C31.2759 13.556 31.7646 13.4334 32.2533 13.3108C32.6198 13.1883 32.9863 13.0657 33.2307 12.8205C33.475 12.5754 33.7194 12.3302 33.8415 11.9625C33.9637 11.8399 33.9637 11.4722 34.0859 11.227C34.2081 10.6142 34.2081 10.1239 34.2081 9.63355C34.2081 9.51098 34.2081 9.3884 34.2081 9.26582C34.2081 9.14325 34.2081 9.02067 34.2081 9.02067C34.2081 8.89809 34.2081 8.89809 34.2081 8.89809C34.0859 8.65294 34.0859 8.65294 33.8415 8.53036C33.2307 8.16263 32.3755 8.16263 32.1311 8.16263ZM24.8008 9.14325C24.8356 8.899 24.5336 8.76064 24.2923 8.70926C24.2166 8.69315 24.1388 8.6743 24.0678 8.65294C22.8461 8.28521 21.5022 8.04006 20.0361 8.04006C19.5474 8.04006 18.9366 8.04006 18.3257 8.04006C17.4705 8.16263 17.3483 8.16263 17.3483 9.02067C17.3483 9.75613 17.3483 10.6142 17.4705 11.1045C17.4705 11.4722 17.5927 11.7174 17.5927 11.8399C17.7148 12.2077 17.9592 12.4528 18.2035 12.698C18.4479 12.9431 18.8144 13.0657 19.1809 13.1883C19.5474 13.3108 20.1583 13.4334 20.7691 13.4334C21.2578 13.4334 21.8687 13.3108 22.2352 13.1883C22.6017 13.0657 22.9682 12.8205 23.2126 12.5754C23.5791 12.3302 23.8234 11.8399 24.19 11.227C24.4343 10.6142 24.6786 10.0013 24.8008 9.14325Z" fill="#341A11"/>
<path d="M26.1448 43.8324C23.8235 41.5034 20.5249 39.0519 16.6154 37.0907C10.3846 34.1489 6.47511 34.0263 0 34.2714C0 36.723 1.34389 36.4778 3.0543 36.6004C7.20814 36.723 10.3846 36.9681 15.0271 39.1745C19.4253 41.3809 23.0905 44.3227 25.0452 46.6517L26.1448 48L27.2443 46.6517C29.1991 44.3227 32.8643 41.2583 37.2624 39.1745C42.3937 36.723 45.9366 36.2327 50.7014 36.4778C53.0226 36.6004 54 36.2327 54 34.2714C46.914 34.2714 42.638 34.0263 35.7964 37.2133C31.7647 39.0519 28.3439 41.626 26.1448 43.8324Z" fill="#341A11"/>
<path d="M22.6019 27.0394L21.6245 26.6717L22.4798 24.833L23.4571 25.2008C23.9458 25.4459 24.4345 25.5685 24.801 25.6911C26.2671 25.9362 27.4888 25.5685 28.5883 24.9556C29.6879 24.3427 30.4209 23.3621 30.9096 22.3815C31.1871 21.8246 31.2485 21.1441 31.3983 20.5428L33.3531 20.9106L33.1087 21.8912C32.5755 24 31.632 25.5338 29.6879 26.6717C28.2218 27.5297 26.5114 28.02 24.5567 27.6523C23.9458 27.5297 23.335 27.2846 22.6019 27.0394Z" fill="#341A11"/>
<path fill-rule="evenodd" clip-rule="evenodd" d="M42.515 18.7042C43.7367 20.2977 45.6914 22.6267 47.4018 24.7105C49.1123 26.7943 50.8227 28.8781 51.6779 29.9813L53.2661 31.9425C51.1892 31.9425 49.2344 32.0651 47.1575 32.1876C43.0037 32.4328 39.3385 32.8005 35.0625 34.7617C32.7412 35.8649 30.5421 37.2133 28.5874 38.8068C27.8543 39.4197 27.2435 40.0325 26.5104 40.6454C26.3883 40.768 26.1439 41.0131 26.0218 41.1357C25.8996 41.0131 25.6552 40.8906 25.5331 40.6454C24.9222 40.0325 24.1892 39.4197 23.4562 38.8068C21.5014 37.2133 19.3023 35.8649 16.981 34.7617C11.6055 32.3102 6.10773 32.1876 0.365652 32.1876C2.07606 29.491 4.15298 26.304 5.86339 23.6073C6.84076 22.1364 7.69597 20.788 8.55117 19.6848C8.55117 19.3171 8.55117 18.8268 8.55117 17.8462C8.55117 16.6204 8.91769 14.6592 9.40637 12.698C9.77289 11.8399 10.0172 11.2271 10.2616 10.4916C9.89506 9.87871 9.65072 9.14325 9.52855 8.28522C9.40638 7.18203 9.52855 5.95627 9.89506 4.7305C10.3838 3.74989 10.9946 2.76928 11.8498 1.78866C12.0942 1.66609 12.2163 1.54351 12.4607 1.29836C13.9267 0.19517 15.6371 -0.172559 17.2254 0.0725936C18.4471 0.317747 19.5466 0.808052 20.524 1.66609C21.1349 1.54351 21.7457 1.42094 22.2344 1.42094C23.4562 1.29836 24.5557 1.29836 25.5331 1.29836C26.6326 1.29836 27.61 1.42094 28.5874 1.54351C28.9539 1.66609 29.3204 1.66609 29.6869 1.78866C30.9086 0.930629 32.2525 0.440323 33.7186 0.317747C35.1847 0.19517 36.7729 0.685476 38.1168 1.66609C39.2163 2.40155 39.9494 3.50474 40.438 4.7305C40.9267 5.95627 41.0489 7.30461 40.8046 8.53037C40.6824 8.8981 40.5602 9.26583 40.438 9.63356C40.9267 10.4916 41.2932 11.3496 41.6598 12.2077C42.2706 13.9237 42.6371 15.6398 42.6371 17.4785C42.515 17.9688 42.515 18.2139 42.515 18.7042ZM48.3792 30.349C45.6914 27.0394 41.4154 21.8912 39.705 19.5623C39.705 18.9494 39.8272 18.3365 39.8272 17.7236C39.8272 14.6592 38.7276 11.7174 36.8951 9.51098C37.3838 9.14325 37.8724 8.65295 38.1168 8.04007C38.4833 6.8143 37.7503 5.09823 36.5285 4.11762C34.8181 2.76928 32.8634 3.13701 31.153 4.36277C30.9086 4.60792 30.6643 4.7305 30.4199 4.97565C28.9539 4.48535 27.4878 4.11762 25.5331 4.11762C23.5783 4.11762 21.3792 4.11762 19.6688 4.97565C17.9584 2.76928 15.6371 2.03382 13.8046 3.87247C12.5828 5.09823 12.2163 6.69172 12.3385 7.91749C12.4607 9.02068 12.8272 9.51098 13.9267 9.75614C12.4607 11.9625 11.4833 15.885 11.4833 17.7236C11.4833 19.5623 11.6055 19.4397 11.7276 20.1751C9.65072 23.117 6.96294 27.0394 4.88601 30.4716L7.94031 30.5941C11.6055 30.8393 15.1485 31.6973 18.3249 33.1682C21.2571 34.5166 23.9448 36.2327 26.2661 38.3165C28.4652 36.2327 31.153 34.5166 34.2073 33.1682C39.0942 30.9619 43.248 30.5941 48.3792 30.349Z" fill="#341A11"/>
<path d="M66.4321 42.1055C68.3086 42.1055 69.4907 40.8486 69.4907 38.8315C69.4907 36.8101 68.3086 35.5488 66.4321 35.5488C64.5513 35.5488 63.3735 36.8101 63.3735 38.8315C63.3735 40.8486 64.5513 42.1055 66.4321 42.1055ZM66.4321 40.998C65.3906 40.998 64.7271 40.1587 64.7271 38.8315C64.7271 37.5 65.395 36.6562 66.4321 36.6562C67.4692 36.6562 68.1328 37.5 68.1328 38.8315C68.1328 40.1587 67.4692 40.998 66.4321 40.998Z" fill="#341A11"/>
<path d="M71.4591 42.0835C71.8766 42.0835 72.1227 41.8286 72.1227 41.3936V39.3281H74.9791V41.3936C74.9791 41.8286 75.2252 42.0835 75.6427 42.0835C76.0602 42.0835 76.3063 41.8286 76.3063 41.3936V36.2651C76.3063 35.8257 76.0602 35.5708 75.6427 35.5708C75.2252 35.5708 74.9791 35.8257 74.9791 36.2651V38.2339H72.1227V36.2651C72.1227 35.8257 71.8766 35.5708 71.4591 35.5708C71.0416 35.5708 70.7955 35.8257 70.7955 36.2651V41.3936C70.7955 41.8286 71.0416 42.0835 71.4591 42.0835Z" fill="#341A11"/>
<path d="M78.1033 42.0439C79.1756 42.0439 79.7205 41.2002 79.8128 39.4951L79.9666 36.7529H81.8167V41.3936C81.8167 41.8286 82.0628 42.0835 82.4803 42.0835C82.8977 42.0835 83.1438 41.8286 83.1438 41.3936V36.3486C83.1438 35.9136 82.8977 35.6587 82.4803 35.6587H79.4129C78.9954 35.6587 78.7713 35.9048 78.7493 36.3486L78.5867 39.5215C78.534 40.5454 78.3142 40.9233 77.8133 40.9233H77.8001C77.5013 40.9233 77.2947 41.1167 77.2947 41.4067C77.2947 41.8022 77.6067 42.0439 78.1033 42.0439Z" fill="#341A11"/>
<path d="M85.0507 42.0835C85.4023 42.0835 85.6 41.9077 85.7231 41.4858L86.0571 40.4971H88.3466L88.6806 41.499C88.7992 41.9121 88.997 42.0835 89.3705 42.0835C89.7572 42.0835 90.0341 41.8242 90.0341 41.4595C90.0341 41.3276 90.0121 41.209 89.9506 41.0376L88.2104 36.3179C88.0214 35.7993 87.7138 35.5708 87.1952 35.5708C86.6943 35.5708 86.3822 35.8081 86.1977 36.3223L84.4662 41.0376C84.4091 41.2002 84.3783 41.3496 84.3783 41.4595C84.3783 41.8418 84.6376 42.0835 85.0507 42.0835ZM86.3471 39.4688L87.1689 36.8716H87.1996L88.039 39.4688H86.3471Z" fill="#341A11"/>
<path d="M94.0547 35.1753C94.7842 35.1753 95.3775 34.8062 95.5225 34.2656C95.5445 34.1953 95.5533 34.125 95.5533 34.0547C95.5533 33.8525 95.4083 33.7119 95.1929 33.7119C94.9908 33.7119 94.8721 33.7998 94.7667 34.0283C94.6436 34.3579 94.4107 34.5469 94.0547 34.5469C93.69 34.5469 93.4703 34.3579 93.3428 34.0283C93.233 33.7998 93.1143 33.7119 92.9166 33.7119C92.6968 33.7119 92.5518 33.8525 92.5518 34.0635C92.5518 34.1382 92.565 34.2129 92.5914 34.2788C92.7496 34.8105 93.3472 35.1753 94.0547 35.1753ZM91.9849 42.0835C92.3629 42.0835 92.5914 41.9692 92.8111 41.6353L95.4478 37.7109H95.5005V41.3936C95.5005 41.8286 95.751 42.0835 96.1641 42.0835C96.5772 42.0835 96.8233 41.8286 96.8233 41.3936V36.2915C96.8233 35.8389 96.564 35.5708 96.1202 35.5708C95.7466 35.5708 95.5225 35.6938 95.3072 36.0146L92.6661 39.9521H92.6133V36.2607C92.6133 35.8301 92.3672 35.5708 91.9542 35.5708C91.5411 35.5708 91.2906 35.8301 91.2906 36.2607V41.3584C91.2906 41.8198 91.5455 42.0835 91.9849 42.0835Z" fill="#341A11"/>
<path d="M98.9938 42.0835C99.4113 42.0835 99.6574 41.8286 99.6574 41.3936V39.3281H102.514V41.3936C102.514 41.8286 102.76 42.0835 103.177 42.0835C103.595 42.0835 103.841 41.8286 103.841 41.3936V36.2651C103.841 35.8257 103.595 35.5708 103.177 35.5708C102.76 35.5708 102.514 35.8257 102.514 36.2651V38.2339H99.6574V36.2651C99.6574 35.8257 99.4113 35.5708 98.9938 35.5708C98.5764 35.5708 98.3303 35.8257 98.3303 36.2651V41.3936C98.3303 41.8286 98.5764 42.0835 98.9938 42.0835Z" fill="#341A11"/>
<path d="M105.845 39.9829H107.677C108.024 39.9829 108.284 39.7764 108.284 39.4204C108.284 39.0645 108.024 38.8623 107.677 38.8623H105.845C105.497 38.8623 105.238 39.0645 105.238 39.4204C105.238 39.7764 105.497 39.9829 105.845 39.9829Z" fill="#341A11"/>
<path d="M110.349 42H116.606C117.024 42 117.27 41.7451 117.27 41.3057V36.2651C117.27 35.8301 117.024 35.5708 116.606 35.5708C116.193 35.5708 115.943 35.8301 115.943 36.2651V40.9058H114.141V36.2651C114.141 35.8301 113.895 35.5708 113.478 35.5708C113.064 35.5708 112.814 35.8301 112.814 36.2651V40.9058H111.012V36.2651C111.012 35.8301 110.766 35.5708 110.349 35.5708C109.936 35.5708 109.685 35.8301 109.685 36.2651V41.3057C109.685 41.7451 109.931 42 110.349 42Z" fill="#341A11"/>
<path d="M119.436 42.0835C119.854 42.0835 120.1 41.8286 120.1 41.3936V39.2139H120.135L122.574 41.7407C122.824 42.0044 122.961 42.0835 123.198 42.0835C123.558 42.0835 123.822 41.8154 123.822 41.4507C123.822 41.2749 123.769 41.1606 123.624 40.998L121.348 38.6602L123.475 36.542C123.615 36.4014 123.672 36.2695 123.672 36.0981C123.672 35.8081 123.413 35.5708 123.088 35.5708C122.89 35.5708 122.772 35.6367 122.543 35.874L120.135 38.3438H120.1V36.2651C120.1 35.8301 119.854 35.5708 119.436 35.5708C119.023 35.5708 118.773 35.8301 118.773 36.2651V41.3936C118.773 41.8286 119.023 42.0835 119.436 42.0835Z" fill="#341A11"/>
<path d="M127.794 42.1055C129.671 42.1055 130.853 40.8486 130.853 38.8315C130.853 36.8101 129.671 35.5488 127.794 35.5488C125.913 35.5488 124.736 36.8101 124.736 38.8315C124.736 40.8486 125.913 42.1055 127.794 42.1055ZM127.794 40.998C126.753 40.998 126.089 40.1587 126.089 38.8315C126.089 37.5 126.757 36.6562 127.794 36.6562C128.831 36.6562 129.495 37.5 129.495 38.8315C129.495 40.1587 128.831 40.998 127.794 40.998Z" fill="#341A11"/>
<path d="M132.144 42.0439C133.217 42.0439 133.762 41.2002 133.854 39.4951L134.008 36.7529H135.858V41.3936C135.858 41.8286 136.104 42.0835 136.521 42.0835C136.939 42.0835 137.185 41.8286 137.185 41.3936V36.3486C137.185 35.9136 136.939 35.6587 136.521 35.6587H133.454C133.037 35.6587 132.812 35.9048 132.79 36.3486L132.628 39.5215C132.575 40.5454 132.355 40.9233 131.854 40.9233H131.841C131.542 40.9233 131.336 41.1167 131.336 41.4067C131.336 41.8022 131.648 42.0439 132.144 42.0439Z" fill="#341A11"/>
<path d="M139.092 42.0835C139.443 42.0835 139.641 41.9077 139.764 41.4858L140.098 40.4971H142.388L142.722 41.499C142.84 41.9121 143.038 42.0835 143.412 42.0835C143.798 42.0835 144.075 41.8242 144.075 41.4595C144.075 41.3276 144.053 41.209 143.992 41.0376L142.252 36.3179C142.063 35.7993 141.755 35.5708 141.236 35.5708C140.735 35.5708 140.423 35.8081 140.239 36.3223L138.507 41.0376C138.45 41.2002 138.419 41.3496 138.419 41.4595C138.419 41.8418 138.679 42.0835 139.092 42.0835ZM140.388 39.4688L141.21 36.8716H141.241L142.08 39.4688H140.388Z" fill="#341A11"/>
<path d="M77.79 4.778C76.634 8.756 75.206 12.632 73.642 16.474H73.608C72.044 12.53 70.786 8.518 69.902 4.778C67.862 4.336 65.55 4.336 63.544 4.778C65.006 10.048 67.284 16.032 69.8 21.2C70.31 21.336 70.922 21.404 71.432 21.438V21.472C70.48 23.58 69.358 25.62 67.896 27.796C70.004 28.272 72.384 28.272 74.458 27.796C77.926 20.996 81.598 12.088 83.91 4.778C81.972 4.336 79.728 4.336 77.79 4.778Z" fill="#341A11"/>
<path d="M84.6811 27.796C86.5171 28.306 88.6591 28.306 90.4951 27.796C90.5631 23.308 90.8011 18.752 91.2431 14.638H91.2771C92.7391 17.63 94.1671 21.2 95.1871 24.498C96.6491 25.008 98.3491 25.008 99.8451 24.498C100.797 21.2 102.191 17.63 103.619 14.638H103.687C104.095 18.99 104.333 23.546 104.401 27.796C106.237 28.306 108.345 28.306 110.181 27.796C110.011 20.452 109.399 11.986 108.413 4.778C106.543 4.234 104.367 4.234 102.497 4.778C100.593 8.654 98.8591 13.142 97.5671 17.664H97.4991C96.1391 13.142 94.3711 8.654 92.3991 4.778C90.4951 4.234 88.3531 4.234 86.4491 4.778C85.4631 11.986 84.8511 20.452 84.6811 27.796Z" fill="#341A11"/>
<path d="M123.209 28.34C125.521 28.34 127.697 27.83 129.329 26.98C129.499 25.042 128.989 23.036 127.969 21.846C126.949 22.356 125.555 22.628 123.991 22.628C120.489 22.628 118.755 20.452 118.755 16.1C118.755 11.918 120.149 9.844 122.835 9.844C124.127 9.844 125.181 10.456 125.793 11.51C127.459 10.762 128.717 9.334 129.125 7.6C127.901 5.458 125.521 4.2 122.563 4.2C116.511 4.2 112.635 8.96 112.635 16.44C112.635 24.09 116.443 28.34 123.209 28.34Z" fill="#341A11"/>
<path d="M145.3 15.046C147.612 11.85 149.516 8.212 150.808 4.778C148.904 4.268 146.524 4.268 144.62 4.778C143.056 8.756 140.71 12.734 137.99 15.828V4.778C136.086 4.268 133.944 4.268 132.04 4.778V27.796C133.944 28.306 136.086 28.306 137.99 27.796V22.73C139.248 21.574 140.472 20.248 141.526 19.024C143.09 21.846 144.484 24.906 145.47 27.796C147.578 28.34 149.924 28.34 152.032 27.796C150.4 23.512 147.986 18.956 145.3 15.046Z" fill="#341A11"/>
<path d="M166.509 4.778C165.353 8.756 163.925 12.632 162.361 16.474H162.327C160.763 12.53 159.505 8.518 158.621 4.778C156.581 4.336 154.269 4.336 152.263 4.778C153.725 10.048 156.003 16.032 158.519 21.2C159.029 21.336 159.641 21.404 160.151 21.438V21.472C159.199 23.58 158.077 25.62 156.615 27.796C158.723 28.272 161.103 28.272 163.177 27.796C166.645 20.996 170.317 12.088 172.629 4.778C170.691 4.336 168.447 4.336 166.509 4.778Z" fill="#341A11"/>
<path d="M190.962 4.54H181.646H175.594L173.86 19.942C173.622 22.05 172.976 22.866 171.548 22.866C171.004 22.866 170.46 22.764 170.052 22.628C169.202 23.784 168.726 25.518 168.794 27.354C169.95 27.966 171.412 28.306 172.738 28.306C177.124 28.306 179.232 26.062 179.81 20.656L181.034 9.912H185.012V27.796C186.916 28.306 189.092 28.306 190.962 27.796V4.54Z" fill="#341A11"/>
</svg>
