<svg xmlns="http://www.w3.org/2000/svg" width="29" height="26" viewBox="0 0 29 26"><g><g><g><path fill="#f19137" d="M1.877 19.567c2.26.04 3.898.196 6.394 1.41 2.34 1.136 4.289 2.78 5.341 4.034l.585.705.585-.705c1.053-1.253 2.963-2.859 5.341-4.034 2.73-1.332 4.64-1.567 7.174-1.45 1.248.04 1.755-.117 1.716-1.213-3.782 0-6.082-.157-9.708 1.606-2.106 1.018-3.9 2.389-5.108 3.603-1.209-1.214-3.002-2.585-5.107-3.603-3.315-1.606-5.381-1.645-8.89-1.567 0 1.292.74 1.175 1.677 1.214zm10.956 1.175c.39.313.74.666 1.092 1.018l.233.235.273-.274c.351-.352.702-.666 1.092-.979 1.014-.862 2.183-1.567 3.47-2.154 2.262-1.018 4.211-1.214 6.433-1.37a45.503 45.503 0 0 1 3.236-.118l-.857-1.058a184.428 184.428 0 0 0-2.262-2.78c-.935-1.176-1.95-2.39-2.612-3.251V9.5c0-.979-.156-1.958-.507-2.859-.195-.509-.39-.979-.663-1.41.078-.195.156-.352.234-.587a3.458 3.458 0 0 0-.156-2.076c-.234-.626-.662-1.175-1.208-1.606C19.89.415 19.07.18 18.252.22c-.74.04-1.481.314-2.144.744-.195-.039-.39-.078-.624-.117a10.738 10.738 0 0 0-1.637-.118c-.546 0-1.131 0-1.755.079-.312.039-.624.078-.936.156A3.693 3.693 0 0 0 9.402.102C8.505-.055 7.647.14 6.829.728c-.117.079-.234.196-.312.275-.507.47-.82 1.018-1.053 1.566a4.699 4.699 0 0 0-.234 1.88c.078.47.195.862.39 1.214a9.062 9.062 0 0 0-.39 1.097c-.312 1.018-.468 2.115-.468 2.742 0 .509 0 .783.04.979a47.425 47.425 0 0 0-1.443 2.115c-.975 1.449-2.028 3.133-2.964 4.621 3.12 0 6.005.078 8.89 1.37a15.051 15.051 0 0 1 3.548 2.155z"/></g><g><path fill="#331f15" d="M12.254 6.338a.533.533 0 0 0 .524-.524.533.533 0 0 0-.524-.524.533.533 0 0 0-.524.524c0 .282.242.524.524.524z"/></g><g><path fill="#331f15" d="M15.394 6.338a.533.533 0 0 0 .524-.524.533.533 0 0 0-.524-.524.533.533 0 0 0-.524.524c0 .282.242.524.524.524z"/></g><g><path fill="#fff" d="M16.888 7.972c.195 0 .39 0 .546-.04 1.013.794 1.636 1.986 1.636 3.296 0 2.422-2.104 6.632-4.715 6.632-2.61 0-4.715-4.21-4.715-6.632 0-1.27.624-2.462 1.598-3.256h.234c.39 0 .74-.04 1.052-.159.156-.04.272-.12.428-.199.117-.079.273-.158.39-.277.117-.12.234-.278.35-.437.196-.04.43-.04.624-.04h.234c.234.278.507.516.818.715.117.08.273.159.429.198.312.08.701.12 1.091.199zM14.2 12.777c1.286-.04 2.494-1.628 2.494-3.018s-1.052-1.986-2.455-1.986-2.65.596-2.65 1.986c0 1.39 1.364 3.058 2.611 3.018z"/></g><g><path fill="#331f15" d="M15.424 13.307c-.55.327-1.258.51-2.004.364a2.899 2.899 0 0 1-.747-.219l-.51-.218-.433.91.51.218c.354.146.669.219.983.292 1.061.181 2.004-.037 2.79-.51.747-.437 1.336-1.092 1.65-1.747.118-.219.197-.437.236-.655l.118-.51-1.061-.182-.118.51c-.04.145-.078.29-.157.436a3.145 3.145 0 0 1-1.257 1.31z"/></g><g><path fill="#331f15" d="M14.142 12.625c1.152-.037 2.303-1.572 2.303-2.844 0-1.31-.971-1.871-2.267-1.871-1.296 0-2.447.561-2.447 1.871-.036 1.272 1.223 2.844 2.411 2.844z"/></g><g><path fill="#fff" d="M14.35 8.466c-.172-.036-.344-.036-.559-.036-1.073 0-2.061.39-2.061 1.243 0 .284.129.568.3.853.172-1.279 1.117-2.025 2.32-2.06z"/></g><g><path fill="#331f15" d="M8.38 4.261l-.32-1.216c.838-.243 1.835-.365 2.833-.365 1.157 0 1.835.162 2.833.487.2.08.32.04.439 0h.04c.08 0 .16-.041.24-.082.039-.04.119-.04.159-.08.16-.082.319-.122.439-.163.598-.202 1.556-.202 2.513-.121.998.08 1.955.283 2.554.567l-.479 1.135c-.04-.04-.12-.04-.16-.08 0 .12.04.242.04.364.04.405 0 .77-.08 1.135-.08.243-.12.446-.199.608-.28.648-.758 1.054-1.396 1.256-.16.041-.36.082-.559.122-.2.04-.36.04-.559.04-.399 0-.758-.04-1.077-.162-.16-.04-.28-.121-.439-.202-.319-.162-.598-.446-.838-.73-.12-.121-.2-.284-.279-.405-.08-.122-.16-.243-.2-.365-.04.04-.04.122-.08.162-.119.243-.239.487-.358.649-.12.202-.24.324-.36.446-.12.121-.239.202-.399.283-.16.081-.279.162-.438.203-.28.122-.679.162-1.078.162h-.24c-.318 0-.638-.04-.877-.121a2.1 2.1 0 0 1-.838-.446 1.824 1.824 0 0 1-.559-.77c-.08-.244-.16-.69-.199-1.136-.04-.405-.04-.81 0-1.094-.04 0-.08 0-.08-.081zm6.224.69c.04.445.16.77.319 1.053.16.324.439.608.758.81.08.041.16.082.28.122.199.081.518.122.797.122.32 0 .599-.04.838-.122.2-.08.4-.162.519-.283.12-.122.24-.284.32-.487.039-.081.079-.243.119-.405.08-.325.12-.608.08-.892-.04-.081-.04-.122-.04-.203-.04-.04-.04-.08-.04-.121-.04-.04-.04-.04-.04-.081-.04-.081-.08-.162-.2-.203-.279-.122-.798-.162-.917-.162-.798-.081-1.716-.122-2.474.203-.32.162-.439.324-.32.648zm-5.227.85c0 .162.04.325.08.406.08.202.199.364.319.486.16.122.319.203.518.284.2.08.52.121.838.121.28 0 .599-.04.798-.121.2-.081.4-.162.559-.324.2-.163.36-.446.519-.77a3.4 3.4 0 0 0 .319-1.136v-.283c-.08-.04-.2-.081-.28-.122a7.357 7.357 0 0 0-2.194-.324c-.24 0-.598 0-.958.04-.438.081-.558.081-.558.568-.04.405 0 .892.04 1.175z"/></g></g></g></svg>